<?xml version="1.0" encoding="UTF-8" standalone="no"?><!-- Generator: Gravit.io --><svg xmlns="http://www.w3.org/2000/svg" xmlns:xlink="http://www.w3.org/1999/xlink" style="isolation:isolate" viewBox="631.019 177 107.962 181" width="107.962pt" height="181pt"><defs><clipPath id="_clipPath_09NL4215y9a2wfqPDOnrjWAv7RFXQO2X"><rect x="631.019" y="177" width="107.962" height="181"/></clipPath></defs><g clip-path="url(#_clipPath_09NL4215y9a2wfqPDOnrjWAv7RFXQO2X)"><g filter="url(#tSLuCAEz7mliKXfGFCv2z7tEA6KyYSiv)"><g><g><mask id="_mask_gcN1gYfr9dZ0jvJx0nBstBRfKcGzJqtD"><path d=" M 685 330 L 672.01 307.5 L 659.019 285 L 685 285 Q 700.841 285 710.981 285 Q 705.911 293.781 697.99 307.5 L 685 330 Z  M 675 205 L 675 285 L 695 285 L 695 210 C 695 207.24 692.76 205 690 205 L 675 205 Z " fill-rule="evenodd" fill="white" stroke="none"/></mask><path d=" M 685 330 L 672.01 307.5 L 659.019 285 L 685 285 Q 700.841 285 710.981 285 Q 705.911 293.781 697.99 307.5 L 685 330 Z  M 675 205 L 675 285 L 695 285 L 695 210 C 695 207.24 692.76 205 690 205 L 675 205 Z " fill-rule="evenodd" fill="rgb(0,0,0)"/><path d=" M 685 330 L 672.01 307.5 L 659.019 285 L 685 285 Q 700.841 285 710.981 285 Q 705.911 293.781 697.99 307.5 L 685 330 Z  M 675 205 L 675 285 L 695 285 L 695 210 C 695 207.24 692.76 205 690 205 L 675 205 Z " fill-rule="evenodd" fill="rgb(0,0,0)" mask="url(#_mask_gcN1gYfr9dZ0jvJx0nBstBRfKcGzJqtD)" vector-effect="non-scaling-stroke" stroke-width="2" stroke="rgb(0,0,0)" stroke-linejoin="miter" stroke-linecap="square" stroke-miterlimit="3"/></g></g></g><defs><filter id="tSLuCAEz7mliKXfGFCv2z7tEA6KyYSiv" x="-200%" y="-200%" width="400%" height="400%" filterUnits="objectBoundingBox" color-interpolation-filters="sRGB"><feGaussianBlur xmlns="http://www.w3.org/2000/svg" in="SourceGraphic" stdDeviation="2.146804531419514"/><feOffset xmlns="http://www.w3.org/2000/svg" dx="0" dy="0" result="pf_100_offsetBlur"/><feFlood xmlns="http://www.w3.org/2000/svg" flood-color="#000000" flood-opacity="0.4"/><feComposite xmlns="http://www.w3.org/2000/svg" in2="pf_100_offsetBlur" operator="in" result="pf_100_dropShadow"/><feBlend xmlns="http://www.w3.org/2000/svg" in="SourceGraphic" in2="pf_100_dropShadow" mode="normal"/></filter></defs></g></svg>